<svg width="154" height="129" viewBox="0 0 154 129" fill="none" xmlns="http://www.w3.org/2000/svg">
<path d="M148.141 66.3643C148.141 83.5296 141.13 99.0026 129.888 110.124C118.887 121.124 103.656 127.773 86.8535 127.773C70.1718 127.773 54.9407 121.003 43.8196 110.124C32.5776 99.0026 25.5664 83.5296 25.5664 66.3643C25.5664 32.3964 53.0066 4.95615 86.8535 4.95615C120.7 4.95615 148.141 32.5173 148.141 66.3643Z" fill="#343A40" stroke="#6C757D" stroke-miterlimit="10"/>
<path d="M142.819 26.1105C145.557 26.1105 147.776 23.8916 147.776 21.1544C147.776 18.4171 145.557 16.1982 142.819 16.1982C140.082 16.1982 137.863 18.4171 137.863 21.1544C137.863 23.8916 140.082 26.1105 142.819 26.1105Z" fill="#343A40"/>
<path d="M150.076 6.76941C151.945 6.76941 153.461 5.25402 153.461 3.3847C153.461 1.51538 151.945 0 150.076 0C148.207 0 146.691 1.51538 146.691 3.3847C146.691 5.25402 148.207 6.76941 150.076 6.76941Z" fill="#343A40"/>
<path d="M27.498 25.9897C29.3673 25.9897 30.8827 24.4743 30.8827 22.605C30.8827 20.7356 29.3673 19.2202 27.498 19.2202C25.6287 19.2202 24.1133 20.7356 24.1133 22.605C24.1133 24.4743 25.6287 25.9897 27.498 25.9897Z" fill="#343A40"/>
<path d="M6.82883 91.2661C10.3004 91.2661 13.1147 88.4518 13.1147 84.9803C13.1147 81.5087 10.3004 78.6944 6.82883 78.6944C3.35724 78.6944 0.542969 81.5087 0.542969 84.9803C0.542969 88.4518 3.35724 91.2661 6.82883 91.2661Z" fill="#343A40"/>
<path d="M141.633 31.1667V98.1412C141.633 100.929 139.401 103.137 136.666 103.137H35.784C33.0487 103.137 30.7812 100.893 30.7812 98.1412V31.1667C30.7812 28.4153 33.0127 26.1707 35.784 26.1707H136.666C139.401 26.1707 141.633 28.4153 141.633 31.1667Z" fill="#1A1D20" stroke="#6C757D" stroke-miterlimit="10" stroke-linejoin="round"/>
<path d="M141.633 31.1667V38.6606H30.7812V31.1667C30.7812 28.4153 33.0127 26.1707 35.784 26.1707H136.666C139.401 26.1707 141.633 28.4153 141.633 31.1667Z" fill="#6C757D"/>
<path d="M37.7621 34.28C38.7958 34.28 39.6337 33.4372 39.6337 32.3975C39.6337 31.3578 38.7958 30.515 37.7621 30.515C36.7285 30.515 35.8906 31.3578 35.8906 32.3975C35.8906 33.4372 36.7285 34.28 37.7621 34.28Z" fill="#CED4DA"/>
<path d="M43.8793 34.28C44.9129 34.28 45.7508 33.4372 45.7508 32.3975C45.7508 31.3578 44.9129 30.515 43.8793 30.515C42.8457 30.515 42.0078 31.3578 42.0078 32.3975C42.0078 33.4372 42.8457 34.28 43.8793 34.28Z" fill="#CED4DA"/>
<path d="M49.9653 34.28C50.9989 34.28 51.8368 33.4372 51.8368 32.3975C51.8368 31.3578 50.9989 30.515 49.9653 30.515C48.9317 30.515 48.0938 31.3578 48.0938 32.3975C48.0938 33.4372 48.9317 34.28 49.9653 34.28Z" fill="#CED4DA"/>
<path d="M53.9219 84.2757H118.489" stroke="white" stroke-opacity="0.08" stroke-miterlimit="10" stroke-linecap="round" stroke-linejoin="round"/>
<path d="M64.1094 91.1904H108.306" stroke="white" stroke-opacity="0.08" stroke-miterlimit="10" stroke-linecap="round" stroke-linejoin="round"/>
<path d="M75.411 64.7988V68.5276H73.1436V72.1117H68.8967V68.5276H59.5391V64.2557L68.2128 52.1279H73.1796V64.835H75.411V64.7988ZM68.8967 57.0876L63.498 64.7988H68.8967V57.0876Z" fill="#CED4DA"/>
<path d="M86.0642 72.5099C81.5294 72.5099 77.5344 68.5276 77.5344 62.0836C77.5344 55.6395 81.4934 51.6573 86.0642 51.6573C90.6351 51.6573 94.594 55.6395 94.594 62.0836C94.594 68.5276 90.6351 72.5099 86.0642 72.5099ZM86.0642 68.6724C88.1877 68.6724 90.3111 66.5365 90.3111 62.1198C90.3111 57.7031 88.1877 55.5671 86.0642 55.5671C83.9408 55.5671 81.8173 57.7031 81.8173 62.1198C81.8173 66.5365 83.9408 68.6724 86.0642 68.6724Z" fill="#CED4DA"/>
<path d="M112.913 64.7988V68.5276H110.646V72.1117H106.399V68.5276H97.0414V64.2557L105.715 52.1279H110.682V64.835H112.913V64.7988ZM106.363 57.0876L100.964 64.7988H106.363V57.0876Z" fill="#CED4DA"/>
<path d="M136.729 117.926L112.617 93.8334L118.145 88.3057L142.238 112.418L136.729 117.926Z" fill="#6C757D" stroke="#CED4DA" stroke-miterlimit="10"/>
<path d="M145.112 126.404L126.623 107.914C125.079 106.371 125.079 103.854 126.623 102.311C128.167 100.767 130.683 100.767 132.227 102.311L150.716 120.8C152.26 122.344 152.26 124.86 150.716 126.404C149.172 127.948 146.656 127.948 145.112 126.404Z" fill="#6C757D" stroke="#CED4DA" stroke-miterlimit="10"/>
<path d="M143.796 127.585L120.008 103.797C119.456 103.245 119.456 102.349 120.008 101.777L126.089 95.6964C126.642 95.1437 127.537 95.1437 128.109 95.6964L151.897 119.485C152.45 120.037 152.45 120.933 151.897 121.505L145.817 127.585C145.245 128.138 144.349 128.138 143.796 127.585Z" fill="#6C757D" stroke="#CED4DA" stroke-miterlimit="10"/>
<path d="M85.3218 16.1981C60.0852 16.1981 39.6328 36.6505 39.6328 61.8872C39.6328 87.1049 60.0852 107.576 85.3027 107.576C110.539 107.576 130.992 87.124 130.992 61.8872C130.992 36.6505 110.539 16.1981 85.3218 16.1981ZM85.3218 99.1133C65.0601 99.1133 48.6486 82.435 48.6486 61.8682C48.6486 41.3014 65.0601 24.6421 85.3218 24.6421C105.584 24.6421 121.995 41.3205 121.995 61.8872C121.995 82.454 105.564 99.1133 85.3218 99.1133Z" fill="#6C757D" stroke="#CED4DA" stroke-miterlimit="10"/>
</svg>
