<svg width="252" height="32" viewBox="0 0 252 32" fill="none" xmlns="http://www.w3.org/2000/svg">
<g clip-path="url(#clip0_14490_475)">
<path d="M39.8809 26.4356V5.4925H47.369C48.7829 5.36 50.2088 5.53852 51.5456 6.01539C52.8824 6.49226 54.0974 7.25581 55.1046 8.25193C56.1117 9.24805 56.8863 10.4524 57.3734 11.7795C57.8605 13.1066 58.0483 14.5241 57.9234 15.9315C57.9234 22.4767 53.972 26.4357 47.1391 26.4357L39.8809 26.4356ZM46.9532 23.6739C52.0666 23.6739 54.5952 20.8962 54.5952 15.9315C54.5952 10.9933 52.0666 8.25419 47.1618 8.25419H43.2639V23.6739H46.9532Z" fill="#212529"/>
<path d="M59.4658 18.656C59.4217 17.6045 59.5918 16.555 59.9658 15.5706C60.3398 14.5862 60.9101 13.6872 61.6423 12.9277C62.3746 12.1682 63.2536 11.5638 64.2266 11.151C65.1996 10.7381 66.2465 10.5253 67.3043 10.5253C68.3622 10.5253 69.409 10.7381 70.3821 11.151C71.3551 11.5638 72.2341 12.1682 72.9663 12.9277C73.6986 13.6872 74.2688 14.5862 74.6429 15.5706C75.0169 16.555 75.187 17.6045 75.1429 18.656C75.1827 19.7048 75.0095 20.7509 74.6335 21.7317C74.2575 22.7124 73.6866 23.6076 72.9548 24.3637C72.223 25.1198 71.3454 25.7212 70.3745 26.1321C69.4036 26.5429 68.3594 26.7546 67.3043 26.7546C66.2493 26.7546 65.2051 26.5429 64.2342 26.1321C63.2633 25.7212 62.3857 25.1198 61.6539 24.3637C60.9221 23.6076 60.3511 22.7124 59.9752 21.7317C59.5992 20.7509 59.426 19.7048 59.4658 18.656ZM71.8374 18.6453C71.8374 15.6388 70.3919 13.0793 67.315 13.0793C64.2168 13.0793 62.7713 15.6388 62.7713 18.6453C62.7713 21.6625 64.2168 24.1848 67.315 24.1848C70.3919 24.1848 71.8374 21.6625 71.8374 18.6453Z" fill="#212529"/>
<path d="M80.4316 26.4357H77.1582V10.7272H80.3007V13.2868H80.5079C80.9595 12.3836 81.6744 11.6369 82.5592 11.1442C83.444 10.6515 84.4576 10.4357 85.4676 10.525C86.2547 10.4649 87.0455 10.5788 87.7832 10.8585C88.5209 11.1382 89.1872 11.5768 89.7345 12.1429C90.2817 12.7089 90.6963 13.3884 90.9486 14.1327C91.2008 14.8769 91.2844 15.6675 91.1933 16.4476V26.4358H87.9198V16.8148C87.9702 16.3322 87.9132 15.8445 87.753 15.3862C87.5928 14.9279 87.3332 14.5103 86.9926 14.163C86.652 13.8156 86.2388 13.5471 85.7823 13.3764C85.3258 13.2056 84.8371 13.1369 84.3509 13.1751C83.8242 13.1399 83.296 13.2178 82.8022 13.4034C82.3084 13.5891 81.8605 13.8782 81.4888 14.2511C81.1172 14.624 80.8304 15.0721 80.648 15.5649C80.4656 16.0577 80.3918 16.5838 80.4316 17.1075L80.4316 26.4357Z" fill="#212529"/>
<path d="M93.0781 21.9977C93.0781 18.4271 96.3408 17.6502 99.5287 17.3043C102.548 16.9797 103.776 16.9957 103.776 15.8836V15.8091C103.776 14.0318 102.693 12.9995 100.58 12.9995C99.7821 12.9271 98.9812 13.0975 98.283 13.488C97.5848 13.8786 97.0223 14.4709 96.6699 15.1865L93.593 14.532C94.1781 13.2217 95.1643 12.1288 96.4108 11.4093C97.6573 10.6897 99.1004 10.3802 100.534 10.5249C103.206 10.5249 107.06 11.4349 107.06 16.0058V26.4355H103.864V24.2911H103.733C103.216 25.1228 102.478 25.7961 101.601 26.2366C100.723 26.6771 99.7405 26.8675 98.7611 26.7867C95.5639 26.7868 93.0781 25.0894 93.0781 21.9977ZM103.786 20.7737V18.7463C102.488 19.2334 101.121 19.517 99.7346 19.5871C97.8411 19.8212 96.286 20.4012 96.286 22.0402C96.286 23.5514 97.6219 24.3283 99.4725 24.3283C99.9929 24.3916 100.521 24.3485 101.024 24.2018C101.527 24.0551 101.995 23.8078 102.399 23.4751C102.802 23.1424 103.134 22.7312 103.372 22.2668C103.611 21.8023 103.752 21.2942 103.786 20.7737Z" fill="#212529"/>
<path d="M117.327 13.1803H113.877V21.8221C113.877 23.5941 114.829 23.9187 115.894 23.9187C116.28 23.9146 116.664 23.87 117.041 23.7856L117.632 26.3132C116.947 26.5377 116.23 26.6491 115.508 26.6432C114.903 26.7293 114.286 26.6859 113.699 26.5158C113.112 26.3458 112.568 26.053 112.104 25.6571C111.639 25.2612 111.265 24.7712 111.007 24.22C110.748 23.6688 110.611 23.069 110.604 22.4606V13.1803H108.141V10.7272H110.604V6.96642H113.877V10.7272H117.327L117.327 13.1803Z" fill="#212529"/>
<path d="M117.866 18.656C117.822 17.6044 117.992 16.5548 118.367 15.5704C118.741 14.5859 119.311 13.6869 120.043 12.9273C120.776 12.1678 121.655 11.5634 122.628 11.1506C123.601 10.7377 124.648 10.5249 125.706 10.5249C126.764 10.5249 127.811 10.7377 128.784 11.1506C129.757 11.5634 130.636 12.1678 131.369 12.9273C132.101 13.6869 132.671 14.5859 133.046 15.5704C133.42 16.5548 133.59 17.6044 133.546 18.656C133.586 19.705 133.412 20.7511 133.036 21.7319C132.66 22.7127 132.089 23.6079 131.357 24.364C130.625 25.1201 129.747 25.7216 128.776 26.1324C127.805 26.5432 126.761 26.755 125.706 26.755C124.651 26.755 123.607 26.5432 122.636 26.1324C121.665 25.7216 120.787 25.1201 120.055 24.364C119.323 23.6079 118.752 22.7127 118.376 21.7319C118 20.7511 117.826 19.705 117.866 18.656ZM130.238 18.6453C130.238 15.6388 128.794 13.0793 125.718 13.0793C122.618 13.0793 121.174 15.6388 121.174 18.6453C121.174 21.6625 122.618 24.1848 125.718 24.1848C128.794 24.1848 130.238 21.6625 130.238 18.6453Z" fill="#212529"/>
<path d="M143.051 26.4356H139.548L133.439 10.7272H136.954L141.211 22.8172H141.388L145.635 10.7272H149.149L143.051 26.4356Z" fill="#212529"/>
<path d="M148.717 24.5838C148.69 24.1474 148.796 23.713 149.02 23.337C149.244 22.961 149.577 22.6608 149.975 22.4752C150.373 22.2896 150.818 22.2273 151.252 22.2963C151.686 22.3652 152.089 22.5624 152.409 22.8621C152.729 23.1618 152.951 23.5502 153.047 23.977C153.142 24.4038 153.106 24.8493 152.944 25.2557C152.782 25.6621 152.501 26.0107 152.137 26.2562C151.774 26.5017 151.344 26.6328 150.905 26.6325C150.342 26.6482 149.796 26.4415 149.386 26.0575C148.976 25.6736 148.735 25.1437 148.717 24.5838Z" fill="#212529"/>
<path d="M159.172 26.4356H155.898V10.7272H159.041V13.2867H159.249C159.7 12.3834 160.415 11.6365 161.3 11.1437C162.184 10.651 163.198 10.4354 164.208 10.525C164.995 10.465 165.785 10.5789 166.523 10.8587C167.261 11.1384 167.927 11.577 168.474 12.1431C169.022 12.7091 169.436 13.3886 169.688 14.1328C169.941 14.877 170.024 15.6675 169.933 16.4476V26.4358H166.66V16.8148C166.71 16.3321 166.653 15.8443 166.493 15.386C166.332 14.9277 166.073 14.5101 165.732 14.1628C165.391 13.8155 164.978 13.547 164.521 13.3763C164.065 13.2056 163.576 13.1369 163.09 13.1751C162.563 13.14 162.035 13.218 161.542 13.4037C161.048 13.5895 160.6 13.8786 160.229 14.2515C159.857 14.6244 159.57 15.0724 159.388 15.5652C159.206 16.0579 159.132 16.5839 159.172 17.1075V26.4356Z" fill="#212529"/>
<path d="M171.891 18.6825C171.803 17.625 171.94 16.561 172.294 15.56C172.648 14.559 173.21 13.6435 173.944 12.8735C174.678 12.1035 175.567 11.4963 176.553 11.0916C177.539 10.6869 178.599 10.4938 179.665 10.5249C180.7 10.4699 181.734 10.6404 182.696 11.0245C183.657 11.4086 184.523 11.997 185.232 12.7486C185.941 13.5002 186.477 14.3969 186.801 15.3758C187.126 16.3548 187.231 17.3925 187.111 18.4163V19.5019H175.154C175.113 20.135 175.209 20.7695 175.435 21.3628C175.66 21.9561 176.011 22.4945 176.463 22.942C176.915 23.3895 177.458 23.7356 178.056 23.9573C178.653 24.1789 179.291 24.271 179.927 24.2272C180.728 24.3069 181.534 24.1333 182.23 23.731C182.925 23.3288 183.476 22.7185 183.803 21.9869L186.902 22.5084C186.376 23.8908 185.401 25.0591 184.131 25.8282C182.862 26.5973 181.372 26.9234 179.895 26.7548C178.816 26.8285 177.733 26.6693 176.721 26.2882C175.708 25.907 174.791 25.3129 174.031 24.5464C173.271 23.7799 172.686 22.8591 172.317 21.8471C171.948 20.835 171.802 19.7555 171.891 18.6825ZM183.902 17.2138C183.926 16.6583 183.833 16.1038 183.629 15.586C183.425 15.0682 183.115 14.5984 182.718 14.2067C182.322 13.8151 181.847 13.5101 181.325 13.3113C180.803 13.1126 180.245 13.0245 179.687 13.0526C178.535 13.0165 177.415 13.4327 176.569 14.2113C175.722 14.9899 175.218 16.0684 175.164 17.2138H183.902Z" fill="#212529"/>
<path d="M196.616 13.1803H193.169V21.8221C193.169 23.5941 194.121 23.9187 195.183 23.9187C195.569 23.9143 195.955 23.8697 196.333 23.7856L196.924 26.3132C196.238 26.5371 195.521 26.6486 194.8 26.6432C194.195 26.7297 193.578 26.6866 192.99 26.5167C192.403 26.3468 191.859 26.0541 191.395 25.6581C190.93 25.2621 190.556 24.772 190.298 24.2205C190.039 23.6691 189.902 23.0691 189.895 22.4606V13.1803H187.43V10.7272H189.895V6.96642H193.169V10.7272H196.616L196.616 13.1803Z" fill="#212529"/>
<path d="M0 16.1391L4.61053 4.78569L15.943 0L27.355 4.58688L32.1653 15.8613L27.5548 27.2147L16.2223 32.0004L4.81036 27.4135L0 16.1391Z" fill="#0D6EFD"/>
<path d="M16.2055 15.7463L4.61053 4.78568L0 16.1391L16.2055 15.7463Z" fill="#00A4FF"/>
<path d="M16.3579 15.8134L15.9438 0L4.61133 4.78569L16.3579 15.8134Z" fill="#2CAFFF"/>
<path d="M16.082 16.0002L16.2217 32.0004L27.5542 27.2147L16.082 16.0002Z" fill="#2463ED"/>
<path d="M25.4032 16.0816L22.7308 9.5019L16.1653 6.72821L9.55166 9.38692L6.76367 15.9187L9.43609 22.4985L16.0016 25.2721L22.6152 22.6134L25.4032 16.0816Z" fill="#1099FF"/>
<path opacity="0.63" d="M10.2387 17.8504C14.2527 17.8504 17.5066 14.6132 17.5066 10.6198C17.5066 6.62635 14.2527 3.38905 10.2387 3.38905C6.22468 3.38905 2.9707 6.62635 2.9707 10.6198C2.9707 14.6132 6.22468 17.8504 10.2387 17.8504Z" fill="url(#paint0_radial_14490_475)"/>
<path d="M209.139 26.716C208.169 26.1062 207.515 25.5727 207.177 25.1153C206.838 24.6798 206.974 24.2769 207.583 23.9067C207.718 23.8196 207.932 23.8958 208.226 24.1353C208.541 24.3531 208.801 24.56 209.004 24.756C209.455 25.148 210.008 25.3876 210.662 25.4747C211.338 25.5836 212.094 25.5291 212.929 25.3113C213.876 25.0282 214.699 24.6362 215.398 24.1353C216.12 23.6127 216.797 22.9811 217.429 22.2407C217.902 21.6527 218.229 21.0211 218.41 20.346C218.59 19.6491 218.658 19.0067 218.613 18.4187C218.59 17.8307 218.466 17.4169 218.241 17.1773C217.677 16.4151 216.887 15.8924 215.872 15.6093C214.88 15.3044 213.707 15.3262 212.353 15.6747C212.195 15.6964 211.959 15.74 211.643 15.8053C211.327 15.8707 211.045 15.936 210.797 16.0013C210.549 16.0449 210.414 16.0667 210.391 16.0667C210.233 16.1102 210.109 16.1647 210.019 16.23C209.929 16.2736 209.816 16.4369 209.68 16.72C209.568 16.9813 209.387 17.4604 209.139 18.1573C208.891 18.8324 208.519 19.8342 208.023 21.1627C207.549 22.4911 207.165 23.4384 206.872 24.0047C206.601 24.5491 206.353 24.7996 206.128 24.756C205.925 24.6907 205.665 24.4511 205.35 24.0373C205.169 23.7324 205.056 23.4384 205.011 23.1553C204.966 22.8504 205.056 22.502 205.282 22.11C205.395 21.914 205.485 21.7398 205.553 21.5873C205.62 21.4131 205.711 21.1191 205.823 20.7053C205.936 20.3787 206.15 19.8124 206.466 19.0067C206.805 18.1791 207.199 17.2209 207.65 16.132C208.101 15.0213 208.575 13.878 209.071 12.702C209.568 11.526 210.041 10.4153 210.492 9.37C210.966 8.32467 211.361 7.44267 211.677 6.724C211.992 6.04889 212.184 5.55889 212.252 5.254C212.32 4.94911 212.297 4.78578 212.184 4.764C212.184 4.65511 212.15 4.55711 212.083 4.47C212.015 4.36111 211.992 4.26311 212.015 4.176C212.015 4.08889 212.162 3.96911 212.455 3.81667C212.771 3.66422 213.109 3.52267 213.47 3.392C213.853 3.26133 214.147 3.21778 214.35 3.26133C214.462 3.26133 214.598 3.26133 214.756 3.26133C214.914 3.23956 214.992 3.18511 214.992 3.098C215.06 3.098 215.274 3.07622 215.635 3.03267C215.996 2.98911 216.391 2.98911 216.82 3.03267C218.331 3.16333 219.504 3.588 220.338 4.30667C221.173 5.00356 221.579 5.96178 221.556 7.18133C221.534 7.55156 221.331 8.05244 220.947 8.684C220.586 9.31556 220.135 9.94711 219.594 10.5787C219.075 11.2102 218.568 11.7438 218.071 12.1793C217.778 12.4189 217.462 12.6693 217.124 12.9307C216.808 13.1702 216.526 13.3771 216.278 13.5513C216.053 13.7038 215.94 13.78 215.94 13.78C215.94 13.78 216.03 13.8127 216.21 13.878C216.391 13.9433 216.583 14.0087 216.786 14.074C217.823 14.4442 218.68 14.9124 219.357 15.4787C220.034 16.0449 220.496 16.8289 220.744 17.8307C220.835 18.1573 220.835 18.5602 220.744 19.0393C220.677 19.5184 220.575 19.9976 220.44 20.4767C220.304 20.934 220.158 21.326 220 21.6527C219.842 21.8051 219.718 21.9684 219.628 22.1427C219.538 22.2951 219.492 22.3713 219.492 22.3713C219.492 22.4149 219.402 22.5891 219.222 22.894C219.041 23.1771 218.827 23.4929 218.579 23.8413C218.331 24.1898 218.094 24.4947 217.868 24.756C217.643 24.9302 217.372 25.1371 217.056 25.3767C216.763 25.6162 216.425 25.8449 216.041 26.0627C215.68 26.2804 215.286 26.4656 214.857 26.618C214.226 26.8793 213.538 27.0536 212.793 27.1407C212.071 27.2496 211.383 27.2604 210.729 27.1733C210.075 27.108 209.545 26.9556 209.139 26.716ZM210.797 14.1393C210.797 14.1393 211 14.1067 211.406 14.0413C211.835 13.9542 212.297 13.8671 212.793 13.78C213.289 13.6711 213.65 13.5731 213.876 13.486C213.989 13.4207 214.147 13.3336 214.35 13.2247C214.575 13.1158 214.801 12.9524 215.026 12.7347C215.342 12.4516 215.737 12.0487 216.21 11.526C216.707 10.9816 217.192 10.4153 217.665 9.82733C218.139 9.21756 218.5 8.67311 218.748 8.194C219.267 7.41 219.549 6.83289 219.594 6.46267C219.639 6.07067 219.515 5.73311 219.222 5.45C219.019 5.21044 218.669 5.058 218.173 4.99267C217.699 4.90556 217.192 4.88378 216.65 4.92733C216.109 4.94911 215.647 5.01444 215.263 5.12333C214.97 5.21044 214.744 5.31933 214.586 5.45C214.429 5.55889 214.35 5.73311 214.35 5.97267C214.35 6.16867 214.282 6.36467 214.147 6.56067C214.034 6.73489 213.921 6.87644 213.808 6.98533C213.786 7.13778 213.729 7.27933 213.639 7.41C213.549 7.51889 213.504 7.57333 213.504 7.57333C213.504 7.66044 213.346 8.01978 213.03 8.65133C212.714 9.28289 212.398 10.0124 212.083 10.84C211.677 11.7764 211.361 12.5387 211.135 13.1267C210.91 13.6929 210.797 14.0304 210.797 14.1393Z" fill="#0D6EFD"/>
<path d="M224.51 24.854C224.081 24.9629 223.732 24.8758 223.461 24.5927C223.213 24.3096 223.066 23.874 223.021 23.286C222.976 22.698 223.044 22.0011 223.224 21.1953C223.337 20.934 223.427 20.6836 223.495 20.444C223.563 20.1827 223.596 19.9758 223.596 19.8233C223.642 19.6056 223.732 19.2898 223.867 18.876C224.002 18.4404 224.149 17.994 224.307 17.5367C224.465 17.0793 224.611 16.6764 224.747 16.328C224.905 15.9578 225.006 15.7291 225.051 15.642C225.142 15.642 225.221 15.5658 225.288 15.4133C225.356 15.2609 225.39 15.1084 225.39 14.956C225.39 14.7818 225.424 14.5858 225.491 14.368C225.581 14.1502 225.672 13.9978 225.762 13.9107C225.762 13.8018 225.784 13.682 225.83 13.5513C225.897 13.3989 225.931 13.2791 225.931 13.192C225.931 13.1049 225.954 13.0178 225.999 12.9307C226.066 12.8436 226.1 12.7564 226.1 12.6693C226.258 12.3862 226.461 11.9398 226.709 11.33C226.98 10.6984 227.262 10.0016 227.555 9.23933C227.871 8.47711 228.164 7.72578 228.435 6.98533C228.705 6.24489 228.92 5.62422 229.078 5.12333C229.258 4.60067 229.348 4.28489 229.348 4.176C229.348 4.00178 229.393 3.87111 229.484 3.784C229.574 3.69689 229.709 3.65333 229.89 3.65333C229.957 3.588 230.036 3.54444 230.127 3.52267C230.239 3.50089 230.341 3.49 230.431 3.49C230.431 3.49 230.476 3.53356 230.566 3.62067C230.657 3.70778 230.792 3.83844 230.972 4.01267C231.153 4.16511 231.254 4.33933 231.277 4.53533C231.322 4.73133 231.345 4.96 231.345 5.22133C231.345 5.50445 231.311 5.75489 231.243 5.97267C231.175 6.19044 231.04 6.50622 230.837 6.92C230.634 7.33378 230.318 7.97622 229.89 8.84733C229.709 9.28289 229.518 9.69667 229.314 10.0887C229.111 10.4589 229.01 10.6876 229.01 10.7747C229.01 10.8618 228.965 10.9924 228.875 11.1667C228.807 11.3409 228.728 11.5587 228.638 11.82C228.548 11.9942 228.424 12.2556 228.266 12.604C228.108 12.9307 227.939 13.29 227.758 13.682C227.6 14.0522 227.465 14.3789 227.352 14.662C227.239 14.9233 227.183 15.0758 227.183 15.1193C227.183 15.2064 227.172 15.2936 227.149 15.3807C227.149 15.4678 227.104 15.5549 227.014 15.642C226.924 15.642 226.867 15.7073 226.845 15.838C226.845 15.9469 226.845 16.0013 226.845 16.0013C226.845 16.2191 226.664 16.7962 226.303 17.7327C225.942 18.9304 225.604 20.0302 225.288 21.032C224.995 22.0338 224.848 22.8396 224.848 23.4493C224.848 23.972 224.837 24.3204 224.815 24.4947C224.792 24.6471 224.69 24.7669 224.51 24.854Z" fill="#0D6EFD"/>
<path d="M231.546 24.364C231.252 24.364 231.016 24.3096 230.835 24.2007C230.677 24.0918 230.474 23.9393 230.226 23.7433C229.798 23.3078 229.493 22.894 229.313 22.502C229.132 22.0882 229.076 21.6962 229.143 21.326C229.211 21.1518 229.234 20.9884 229.211 20.836C229.211 20.6618 229.211 20.5747 229.211 20.5747C229.098 20.4658 229.065 20.4004 229.11 20.3787C229.155 20.3351 229.2 20.2698 229.245 20.1827C229.38 20.1827 229.425 20.0629 229.38 19.8233C229.335 19.6491 229.425 19.268 229.651 18.68C229.877 18.092 230.159 17.5367 230.497 17.014C230.632 16.7962 230.835 16.5131 231.106 16.1647C231.377 15.7944 231.67 15.4351 231.986 15.0867C232.324 14.7164 232.628 14.4224 232.899 14.2047C233.463 13.7473 233.959 13.4098 234.388 13.192C234.816 12.9742 235.279 12.8109 235.775 12.702C236.271 12.5931 236.61 12.5387 236.79 12.5387C236.993 12.5387 237.264 12.7129 237.602 13.0613C238.121 13.2791 238.493 13.5404 238.719 13.8453C238.967 14.1502 239.125 14.5967 239.192 15.1847C239.26 15.838 239.204 16.5893 239.023 17.4387C238.865 18.2662 238.335 19.3007 237.433 20.542C236.869 21.326 236.35 21.914 235.877 22.306C235.403 22.6762 234.839 23.0464 234.185 23.4167C233.711 23.7216 233.283 23.9502 232.899 24.1027C232.516 24.2333 232.065 24.3204 231.546 24.364ZM234.794 20.9013C235.335 20.3133 235.764 19.758 236.08 19.2353C236.418 18.7127 236.734 18.0484 237.027 17.2427C237.117 17.0031 237.174 16.7091 237.196 16.3607C237.219 15.9904 237.207 15.6529 237.162 15.348C237.14 15.0213 237.061 14.8362 236.925 14.7927C236.655 14.6402 236.328 14.5967 235.944 14.662C235.561 14.7056 235.143 14.9124 234.692 15.2827C233.993 15.8489 233.384 16.5567 232.865 17.406C232.346 18.2336 231.839 19.1809 231.343 20.248C231.004 21.032 230.925 21.6636 231.106 22.1427C231.309 22.6 231.726 22.7633 232.358 22.6327C233.012 22.4802 233.824 21.9031 234.794 20.9013Z" fill="#0D6EFD"/>
<path d="M244.049 30.9953C243.801 31.0171 243.417 30.9627 242.899 30.832C242.402 30.7013 242.03 30.5816 241.782 30.4727C241.489 30.2549 241.196 29.9609 240.902 29.5907C240.609 29.2204 240.372 28.8393 240.192 28.4473C240.034 28.0771 239.966 27.794 239.989 27.598C240.011 27.4238 240.18 27.3911 240.496 27.5C240.835 27.6089 241.06 27.7504 241.173 27.9247C241.376 28.1642 241.613 28.3929 241.883 28.6107C242.154 28.8284 242.425 28.9918 242.696 29.1007C242.966 29.2313 243.18 29.2858 243.338 29.264C243.902 29.1769 244.365 28.9047 244.726 28.4473C245.109 28.0118 245.447 27.4564 245.741 26.7813C245.921 26.3022 246.056 25.8993 246.147 25.5727C246.259 25.2678 246.361 24.9193 246.451 24.5273C246.564 24.1353 246.699 23.5909 246.857 22.894C247.06 22.11 247.195 21.5547 247.263 21.228C247.353 20.8796 247.399 20.6509 247.399 20.542C247.399 20.4331 247.365 20.3569 247.297 20.3133C247.297 20.3133 247.15 20.3896 246.857 20.542C246.564 20.6944 246.237 20.8578 245.876 21.032C245.538 21.2062 245.278 21.3478 245.098 21.4567C244.466 21.6527 243.846 21.7724 243.237 21.816C242.628 21.8596 242.154 21.8269 241.816 21.718C241.658 21.6527 241.489 21.5002 241.308 21.2607C241.15 21.0211 241.015 20.7598 240.902 20.4767C240.812 20.1718 240.778 19.9104 240.801 19.6927C240.823 19.5184 240.925 19.2571 241.105 18.9087C241.286 18.5602 241.489 18.19 241.714 17.798C241.962 17.406 242.177 17.0793 242.357 16.818C242.56 16.5349 242.684 16.3933 242.729 16.3933C242.82 16.3933 242.865 16.3607 242.865 16.2953C242.887 16.23 242.899 16.1538 242.899 16.0667C242.921 15.9796 243.09 15.7944 243.406 15.5113C243.744 15.2064 244.196 14.8362 244.759 14.4007C245.549 13.7038 246.259 13.1702 246.891 12.8C247.523 12.4298 248.109 12.2229 248.65 12.1793C248.808 12.2011 248.955 12.212 249.09 12.212C249.248 12.212 249.327 12.212 249.327 12.212C249.327 12.212 249.395 12.2556 249.53 12.3427C249.688 12.408 249.891 12.4951 250.139 12.604C250.477 12.7347 250.782 12.9633 251.053 13.29C251.323 13.5949 251.538 13.9542 251.695 14.368C251.876 14.76 251.977 15.152 252 15.544C251.977 16.0231 251.865 16.4913 251.662 16.9487C251.481 17.406 251.301 17.6238 251.12 17.602C250.94 17.5802 250.714 17.6564 250.444 17.8307C250.195 18.0049 250.071 18.1356 250.071 18.2227C250.071 18.3098 250.038 18.4187 249.97 18.5493C249.925 18.68 249.778 18.8869 249.53 19.17C249.508 19.2789 249.44 19.5729 249.327 20.052C249.237 20.5093 249.124 21.032 248.989 21.62C248.853 22.208 248.729 22.7416 248.617 23.2207C248.526 23.678 248.47 23.972 248.447 24.1027C248.425 24.1898 248.368 24.3858 248.278 24.6907C248.211 24.9738 248.109 25.3004 247.974 25.6707C247.861 26.0409 247.737 26.3893 247.602 26.716C247.511 27.3476 247.387 27.8158 247.229 28.1207C247.094 28.4473 246.868 28.7958 246.553 29.166C246.214 29.7104 245.808 30.1351 245.335 30.44C244.861 30.7667 244.432 30.9518 244.049 30.9953ZM242.662 20.0193C242.707 20.2371 243.011 20.3133 243.575 20.248C244.139 20.1609 244.703 19.9758 245.267 19.6927C245.763 19.4531 246.214 19.2571 246.62 19.1047C247.026 18.9522 247.308 18.7344 247.466 18.4513C247.602 18.2336 247.714 18.0158 247.805 17.798C247.895 17.5802 248.008 17.2644 248.143 16.8507C248.165 16.7636 248.222 16.6656 248.312 16.5567C248.425 16.426 248.526 16.3498 248.617 16.328C248.707 16.3062 248.797 16.3062 248.887 16.328C249 16.3498 249.135 16.3933 249.293 16.4587C249.406 16.4151 249.485 16.3062 249.53 16.132C249.598 15.9578 249.609 15.7618 249.564 15.544C249.541 15.3916 249.429 15.1847 249.226 14.9233C249.023 14.662 248.763 14.4551 248.447 14.3027C248.109 14.1284 247.714 14.2373 247.263 14.6293C246.812 15.0213 246.259 15.5004 245.605 16.0667C245.086 16.524 244.59 17.0031 244.117 17.504C243.643 18.0049 243.259 18.4731 242.966 18.9087C242.696 19.3442 242.594 19.7144 242.662 20.0193Z" fill="#0D6EFD"/>
</g>
<defs>
<radialGradient id="paint0_radial_14490_475" cx="0" cy="0" r="1" gradientUnits="userSpaceOnUse" gradientTransform="translate(10.2387 10.6198) scale(7.26797 7.2307)">
<stop stop-color="white" stop-opacity="0.4"/>
<stop offset="0.15769" stop-color="white" stop-opacity="0.4"/>
<stop offset="0.4244" stop-color="white" stop-opacity="0.21446"/>
<stop offset="0.68171" stop-color="white" stop-opacity="0.05922"/>
<stop offset="0.81523" stop-color="white" stop-opacity="0"/>
</radialGradient>
<clipPath id="clip0_14490_475">
<rect width="252" height="32" fill="white"/>
</clipPath>
</defs>
</svg>
