<svg width="174" height="130" viewBox="0 0 174 130" fill="none" xmlns="http://www.w3.org/2000/svg">
<path d="M89.9998 129C125.275 129 153.874 100.402 153.874 65C153.874 29.5984 125.149 1 89.9998 1C54.7242 1 26.1258 29.5984 26.1258 65C26.1258 100.402 54.7242 129 89.9998 129Z" fill="#F8F9FA" stroke="#212529" stroke-opacity="0.07" stroke-miterlimit="10"/>
<path d="M161.985 44.7223C164.837 44.7223 167.15 42.4097 167.15 39.557C167.15 36.7042 164.837 34.3916 161.985 34.3916C159.132 34.3916 156.819 36.7042 156.819 39.557C156.819 42.4097 159.132 44.7223 161.985 44.7223Z" fill="#F8F9FA"/>
<path d="M169.542 24.5651C171.49 24.5651 173.07 22.9858 173.07 21.0376C173.07 19.0894 171.49 17.51 169.542 17.51C167.594 17.51 166.014 19.0894 166.014 21.0376C166.014 22.9858 167.594 24.5651 169.542 24.5651Z" fill="#F8F9FA"/>
<path d="M29.0244 23.0471C30.9727 23.0471 32.552 21.4677 32.552 19.5195C32.552 17.5713 30.9727 15.9919 29.0244 15.9919C27.0762 15.9919 25.4969 17.5713 25.4969 19.5195C25.4969 21.4677 27.0762 23.0471 29.0244 23.0471Z" fill="#F8F9FA"/>
<path d="M7.4816 91.0789C11.0997 91.0789 14.0328 88.1459 14.0328 84.5277C14.0328 80.9096 11.0997 77.9766 7.4816 77.9766C3.86348 77.9766 0.93042 80.9096 0.93042 84.5277C0.93042 88.1459 3.86348 91.0789 7.4816 91.0789Z" fill="#F8F9FA"/>
<path d="M99.8996 128.238C96.6744 128.74 93.3693 129 90.0035 129C86.0236 129 82.1288 128.636 78.3503 127.939V17.7605C78.3503 17.3197 78.7077 16.9624 79.1485 16.9624H99.1015C99.5423 16.9624 99.8996 17.3197 99.8996 17.7605V128.238Z" fill="#F8F9FA" stroke="#212529" stroke-opacity="0.07" stroke-miterlimit="10"/>
<path d="M90.0036 129C125.279 129 153.878 100.402 153.878 65C153.878 29.5984 125.153 1 90.0036 1C54.7281 1 26.1296 29.5984 26.1296 65C26.1296 100.402 54.7281 129 90.0036 129Z" stroke="#212529" stroke-opacity="0.07" stroke-miterlimit="10"/>
<path d="M45.3338 55.2723H151.777V28.1362H45.3338L18.491 41.6687L45.3338 55.2723Z" fill="white" stroke="#212529" stroke-opacity="0.07" stroke-miterlimit="10"/>
<path opacity="0.7" d="M52.0125 37.7136H115.064" stroke="#CED4DA" stroke-miterlimit="10"/>
<path opacity="0.7" d="M121.45 37.7136H135.816" stroke="#CED4DA" stroke-miterlimit="10"/>
<path d="M138.503 97.5726H32.0593V70.4365H138.503L165.345 83.969L138.503 97.5726Z" fill="white" stroke="#212529" stroke-opacity="0.07" stroke-miterlimit="10"/>
<path opacity="0.7" d="M131.826 80.0139H68.7742" stroke="#CED4DA" stroke-miterlimit="10"/>
<path opacity="0.7" d="M62.3884 80.0139H48.0222" stroke="#CED4DA" stroke-miterlimit="10"/>
<rect opacity="0.2" x="79.1492" y="98.3708" width="19.953" height="4.78872" fill="#CED4DA"/>
<rect opacity="0.2" x="79.1492" y="56.0703" width="19.953" height="4.78872" fill="#CED4DA"/>
</svg>
