<svg width="174" height="130" viewBox="0 0 174 130" fill="none" xmlns="http://www.w3.org/2000/svg">
<path d="M89.999 129C125.275 129 153.873 100.402 153.873 65C153.873 29.5984 125.149 1 89.999 1C54.7234 1 26.125 29.5984 26.125 65C26.125 100.402 54.7234 129 89.999 129Z" fill="#343A40" stroke="white" stroke-opacity="0.08" stroke-miterlimit="10"/>
<path d="M161.986 44.7223C164.838 44.7223 167.151 42.4097 167.151 39.557C167.151 36.7042 164.838 34.3916 161.986 34.3916C159.133 34.3916 156.82 36.7042 156.82 39.557C156.82 42.4097 159.133 44.7223 161.986 44.7223Z" fill="#343A40"/>
<path d="M169.543 24.5651C171.491 24.5651 173.071 22.9858 173.071 21.0376C173.071 19.0894 171.491 17.51 169.543 17.51C167.595 17.51 166.016 19.0894 166.016 21.0376C166.016 22.9858 167.595 24.5651 169.543 24.5651Z" fill="#343A40"/>
<path d="M29.0237 23.0471C30.9719 23.0471 32.5512 21.4677 32.5512 19.5195C32.5512 17.5713 30.9719 15.9919 29.0237 15.9919C27.0754 15.9919 25.4961 17.5713 25.4961 19.5195C25.4961 21.4677 27.0754 23.0471 29.0237 23.0471Z" fill="#343A40"/>
<path d="M7.48087 91.0789C11.099 91.0789 14.032 88.1459 14.032 84.5277C14.032 80.9096 11.099 77.9766 7.48087 77.9766C3.86275 77.9766 0.929688 80.9096 0.929688 84.5277C0.929688 88.1459 3.86275 91.0789 7.48087 91.0789Z" fill="#343A40"/>
<path d="M99.9008 128.238C96.6756 128.74 93.3706 129 90.0047 129C86.0249 129 82.13 128.636 78.3516 127.939V17.7605C78.3516 17.3197 78.7089 16.9624 79.1497 16.9624H99.1027C99.5435 16.9624 99.9008 17.3197 99.9008 17.7605V128.238Z" fill="#343A40" stroke="white" stroke-opacity="0.08" stroke-miterlimit="10"/>
<path d="M90.0029 129C125.278 129 153.877 100.402 153.877 65C153.877 29.5984 125.153 1 90.0029 1C54.7273 1 26.1289 29.5984 26.1289 65C26.1289 100.402 54.7273 129 90.0029 129Z" stroke="white" stroke-opacity="0.08" stroke-miterlimit="10"/>
<path d="M45.335 55.2723H151.778V28.1362H45.335L18.4922 41.6687L45.335 55.2723Z" fill="#1A1D20" stroke="white" stroke-opacity="0.08" stroke-miterlimit="10"/>
<path opacity="0.7" d="M52.0117 37.7136H115.063" stroke="#ADB5BD" stroke-miterlimit="10"/>
<path opacity="0.7" d="M121.449 37.7136H135.815" stroke="#ADB5BD" stroke-miterlimit="10"/>
<path d="M138.502 97.5726H32.0586V70.4365H138.502L165.345 83.969L138.502 97.5726Z" fill="#1A1D20" stroke="white" stroke-opacity="0.08" stroke-miterlimit="10"/>
<path opacity="0.7" d="M131.825 80.0139H68.7734" stroke="#ADB5BD" stroke-miterlimit="10"/>
<path opacity="0.7" d="M62.3896 80.0139H48.0234" stroke="#ADB5BD" stroke-miterlimit="10"/>
<rect opacity="0.2" x="79.1484" y="98.3708" width="19.953" height="4.78872" fill="#ADB5BD"/>
<rect opacity="0.2" x="79.1484" y="56.0703" width="19.953" height="4.78872" fill="#ADB5BD"/>
</svg>
