<svg width="62" height="32" viewBox="0 0 62 32" fill="none" xmlns="http://www.w3.org/2000/svg">
<path d="M0 6C0 2.68629 2.68629 0 6 0H56C59.3137 0 62 2.68629 62 6V26C62 29.3137 59.3137 32 56 32H6C2.68629 32 0 29.3137 0 26V6Z" fill="#212529" fill-opacity="0.03"/>
<path d="M22.6875 20.1677C20.3859 24.1541 15.2886 25.5199 11.3022 23.2184C10.2166 22.5916 9.30268 21.7437 8.60662 20.7329C8.37389 20.395 8.52443 19.9283 8.91076 19.79C12.0503 18.6663 13.7318 17.3642 14.7075 15.5016C15.7347 13.5408 16.0002 11.3929 15.2816 8.44872C15.1822 8.04161 15.5038 7.65397 15.9223 7.67642C17.2197 7.74603 18.4873 8.11873 19.6368 8.7824C23.6232 11.0839 24.989 16.1813 22.6875 20.1677ZM15.8148 16.0817C14.772 18.0721 13.0552 19.4975 10.1336 20.6641C10.6404 21.2439 11.2433 21.741 11.9272 22.1359C15.3157 24.0922 19.6486 22.9312 21.605 19.5427C23.5613 16.1542 22.4003 11.8213 19.0118 9.86493C18.2809 9.44296 17.4953 9.15961 16.685 9.01865C17.2243 11.8386 16.8765 14.0551 15.8148 16.0817Z" fill="#212529" fill-opacity="0.64"/>
<path d="M32 6C32 3.79086 33.7909 2 36 2H56C58.2091 2 60 3.79086 60 6V26C60 28.2091 58.2091 30 56 30H36C33.7909 30 32 28.2091 32 26V6Z" fill="white"/>
<path d="M45.9993 7.66667C46.3445 7.66667 46.6243 7.94649 46.6243 8.29167V9.54167C46.6243 9.88685 46.3445 10.1667 45.9993 10.1667C45.6542 10.1667 45.3743 9.88685 45.3743 9.54167V8.29167C45.3743 7.94649 45.6542 7.66667 45.9993 7.66667ZM45.9993 20.1667C48.3005 20.1667 50.166 18.3012 50.166 16C50.166 13.6988 48.3005 11.8333 45.9993 11.8333C43.6982 11.8333 41.8327 13.6988 41.8327 16C41.8327 18.3012 43.6982 20.1667 45.9993 20.1667ZM45.9993 18.9167C44.3885 18.9167 43.0827 17.6108 43.0827 16C43.0827 14.3892 44.3885 13.0833 45.9993 13.0833C47.6102 13.0833 48.916 14.3892 48.916 16C48.916 17.6108 47.6102 18.9167 45.9993 18.9167ZM53.7077 16.625C54.0529 16.625 54.3327 16.3452 54.3327 16C54.3327 15.6548 54.0529 15.375 53.7077 15.375H52.4577C52.1125 15.375 51.8327 15.6548 51.8327 16C51.8327 16.3452 52.1125 16.625 52.4577 16.625H53.7077ZM45.9993 21.8333C46.3445 21.8333 46.6243 22.1132 46.6243 22.4583V23.7083C46.6243 24.0535 46.3445 24.3333 45.9993 24.3333C45.6542 24.3333 45.3743 24.0535 45.3743 23.7083V22.4583C45.3743 22.1132 45.6542 21.8333 45.9993 21.8333ZM39.541 16.625C39.8862 16.625 40.166 16.3452 40.166 16C40.166 15.6548 39.8862 15.375 39.541 15.375H38.291C37.9458 15.375 37.666 15.6548 37.666 16C37.666 16.3452 37.9458 16.625 38.291 16.625H39.541ZM39.5157 9.51671C39.7598 9.27263 40.1555 9.27263 40.3996 9.51671L41.6496 10.7667C41.8937 11.0108 41.8937 11.4065 41.6496 11.6506C41.4055 11.8947 41.0098 11.8947 40.7657 11.6506L39.5157 10.4006C39.2717 10.1565 39.2717 9.76079 39.5157 9.51671ZM40.3996 22.4839C40.1555 22.728 39.7598 22.728 39.5157 22.4839C39.2717 22.2398 39.2717 21.8441 39.5157 21.6L40.7657 20.35C41.0098 20.106 41.4055 20.106 41.6496 20.35C41.8937 20.5941 41.8937 20.9898 41.6496 21.2339L40.3996 22.4839ZM52.483 9.51671C52.2389 9.27263 51.8432 9.27263 51.5991 9.51671L50.3491 10.7667C50.105 11.0108 50.105 11.4065 50.3491 11.6506C50.5932 11.8947 50.9889 11.8947 51.233 11.6506L52.483 10.4006C52.727 10.1565 52.727 9.76079 52.483 9.51671ZM51.5991 22.4839C51.8432 22.728 52.2389 22.728 52.483 22.4839C52.727 22.2398 52.727 21.8441 52.483 21.6L51.233 20.35C50.9889 20.106 50.5932 20.106 50.3491 20.35C50.105 20.5941 50.105 20.9898 50.3491 21.2339L51.5991 22.4839Z" fill="#212529"/>
</svg>
