<svg width="280" height="280" viewBox="0 0 280 280" fill="none" xmlns="http://www.w3.org/2000/svg">
<rect width="280" height="280" fill="#28A6E1"/>
<path fill-rule="evenodd" clip-rule="evenodd" d="M144.258 126.601C140.228 128.264 132.173 131.707 120.094 136.928C118.132 137.702 117.104 138.459 117.011 139.2C116.853 140.451 118.432 140.943 120.582 141.614C120.875 141.705 121.178 141.8 121.489 141.9C123.604 142.583 126.45 143.381 127.93 143.413C129.272 143.441 130.77 142.892 132.423 141.766C143.71 134.207 149.536 130.386 149.902 130.304C150.16 130.246 150.517 130.173 150.76 130.387C151.002 130.6 150.978 131.005 150.952 131.113C150.796 131.775 144.597 137.493 141.389 140.452C140.389 141.374 139.68 142.028 139.535 142.178C139.21 142.513 138.879 142.829 138.561 143.134C136.595 145.013 135.121 146.423 138.642 148.725C140.334 149.832 141.688 150.746 143.039 151.659C144.514 152.656 145.986 153.65 147.89 154.888C148.375 155.204 148.838 155.531 149.289 155.85C151.006 157.065 152.548 158.156 154.454 157.982C155.561 157.881 156.705 156.848 157.285 153.767C158.658 146.486 161.356 130.711 161.98 124.21C162.035 123.64 161.966 122.912 161.911 122.592C161.856 122.272 161.74 121.816 161.321 121.478C160.825 121.079 160.058 120.994 159.715 121C158.157 121.028 155.766 121.852 144.258 126.601Z" fill="white"/>
</svg>
