<svg width="280" height="280" viewBox="0 0 280 280" fill="none" xmlns="http://www.w3.org/2000/svg">
<rect width="280" height="280" fill="#FFE3E3"/>
<g clip-path="url(#clip0_14511_10296)">
<path d="M162.94 128.303C162.665 127.278 162.128 126.344 161.382 125.593C160.637 124.842 159.709 124.301 158.692 124.023C154.967 123 139.976 123 139.976 123C139.976 123 124.984 123.031 121.259 124.054C120.241 124.332 119.314 124.873 118.568 125.624C117.823 126.375 117.286 127.309 117.011 128.334C115.884 135.002 115.447 145.161 117.042 151.562C117.317 152.587 117.854 153.521 118.599 154.272C119.345 155.023 120.272 155.564 121.29 155.842C125.014 156.865 140.006 156.865 140.006 156.865C140.006 156.865 154.998 156.865 158.722 155.842C159.74 155.564 160.668 155.023 161.413 154.272C162.158 153.521 162.695 152.587 162.971 151.562C164.159 144.885 164.525 134.732 162.94 128.303Z" fill="#FF0000"/>
<path d="M135.203 147.189L147.64 139.932L135.203 132.676V147.189Z" fill="white"/>
</g>
<defs>
<clipPath id="clip0_14511_10296">
<rect width="48" height="34" fill="white" transform="translate(116 123)"/>
</clipPath>
</defs>
</svg>
