<svg width="17" height="16" viewBox="0 0 17 16" fill="none" xmlns="http://www.w3.org/2000/svg">
<path d="M2.16669 2.8335C2.16669 2.55735 2.39054 2.3335 2.66669 2.3335H3.03886C3.67251 2.3335 4.0519 2.75949 4.26885 3.15549C4.41346 3.41946 4.51807 3.72561 4.5999 4.0028C4.62206 4.00105 4.64451 4.00016 4.66722 4.00016H12.9987C13.5522 4.00016 13.9519 4.52977 13.8001 5.06203L12.5817 9.33478C12.3571 10.1223 11.6375 10.6653 10.8186 10.6653H6.8532C6.02754 10.6653 5.30375 10.1134 5.08524 9.31722L4.57825 7.46986L3.73918 4.63735L3.73782 4.63239C3.63402 4.25384 3.5366 3.90019 3.39184 3.63596C3.25126 3.37936 3.1392 3.3335 3.03886 3.3335H2.66669C2.39054 3.3335 2.16669 3.10964 2.16669 2.8335ZM6.50002 14.0002C7.2364 14.0002 7.83335 13.4032 7.83335 12.6668C7.83335 11.9305 7.2364 11.3335 6.50002 11.3335C5.76364 11.3335 5.16669 11.9305 5.16669 12.6668C5.16669 13.4032 5.76364 14.0002 6.50002 14.0002ZM11.1667 14.0002C11.9031 14.0002 12.5 13.4032 12.5 12.6668C12.5 11.9305 11.9031 11.3335 11.1667 11.3335C10.4303 11.3335 9.83335 11.9305 9.83335 12.6668C9.83335 13.4032 10.4303 14.0002 11.1667 14.0002Z" fill="white"/>
</svg>
