<svg width="32" height="32" viewBox="0 0 32 32" fill="none" xmlns="http://www.w3.org/2000/svg">
<path d="M2.66602 7.66663C2.66602 7.11434 3.11373 6.66663 3.66602 6.66663H24.3327C24.885 6.66663 25.3327 7.11434 25.3327 7.66663C25.3327 8.21891 24.885 8.66663 24.3327 8.66663H3.66602C3.11373 8.66663 2.66602 8.21891 2.66602 7.66663ZM2.66602 23.6666C2.66602 23.1143 3.11373 22.6666 3.66602 22.6666H20.3327C20.885 22.6666 21.3327 23.1143 21.3327 23.6666C21.3327 24.2189 20.885 24.6666 20.3327 24.6666H3.66602C3.11373 24.6666 2.66602 24.2189 2.66602 23.6666ZM3.66602 14.6666C3.11373 14.6666 2.66602 15.1143 2.66602 15.6666C2.66602 16.2189 3.11373 16.6666 3.66602 16.6666H28.3327C28.885 16.6666 29.3327 16.2189 29.3327 15.6666C29.3327 15.1143 28.885 14.6666 28.3327 14.6666H3.66602Z" fill="#717476"/>
</svg>
