<svg width="21" height="21" viewBox="0 0 21 21" fill="none" xmlns="http://www.w3.org/2000/svg">
<path d="M17.9837 5.60315C17.7672 5.6096 17.5617 5.70008 17.4108 5.85542L8.01134 15.2548L3.58914 10.844C3.51235 10.7641 3.42038 10.7002 3.31861 10.6562C3.21683 10.6122 3.1073 10.589 2.99644 10.5879C2.88557 10.5867 2.77559 10.6077 2.67294 10.6496C2.5703 10.6916 2.47704 10.7535 2.39864 10.8319C2.32024 10.9103 2.25828 11.0036 2.21637 11.1062C2.17446 11.2089 2.15346 11.3188 2.15458 11.4297C2.15571 11.5406 2.17895 11.6501 2.22294 11.7519C2.26693 11.8537 2.33078 11.9456 2.41076 12.0224L7.42378 17.0224C7.58 17.1781 7.79158 17.2656 8.01216 17.2656C8.23273 17.2656 8.44431 17.1781 8.60053 17.0224L18.5891 7.03381C18.7096 6.91676 18.7918 6.76606 18.8251 6.60146C18.8584 6.43686 18.8412 6.26604 18.7758 6.11138C18.7103 5.95673 18.5997 5.82545 18.4583 5.73476C18.317 5.64407 18.1515 5.5982 17.9837 5.60315Z" fill="#212529"/>
</svg>
