<svg width="21" height="21" viewBox="0 0 21 21" fill="none" xmlns="http://www.w3.org/2000/svg">
<path d="M8.53328 1.0639C7.6224 1.0639 6.86662 1.81968 6.86662 2.73057V4.39724H4.36662C3.45573 4.39724 2.69995 5.15302 2.69995 6.0639V16.8972C2.69995 17.8081 3.45573 18.5639 4.36662 18.5639H12.7C13.6108 18.5639 14.3666 17.8081 14.3666 16.8972V15.2306H16.8666C17.7775 15.2306 18.5333 14.4748 18.5333 13.5639V5.23057C18.5332 5.00957 18.4454 4.79764 18.2891 4.64138L14.9558 1.30804C14.7996 1.15176 14.5876 1.06395 14.3666 1.0639H8.53328ZM8.53328 2.73057H13.5333V5.23057C13.5333 5.69057 13.9058 6.0639 14.3666 6.0639H16.8666V13.5639H8.53328V2.73057ZM4.36662 6.0639H6.86662V13.5639C6.86662 14.4748 7.6224 15.2306 8.53328 15.2306H12.7V16.8972H4.36662V6.0639Z" fill="white"/>
</svg>
