<svg width="20" height="20" viewBox="0 0 20 20" fill="none" xmlns="http://www.w3.org/2000/svg">
<path d="M3.50874 3.65591L3.57806 3.57741C3.87847 3.277 4.35116 3.25389 4.67807 3.50808L4.75657 3.57741L10.0007 8.82083L15.2447 3.57741C15.5702 3.25197 16.0978 3.25197 16.4232 3.57741C16.7487 3.90284 16.7487 4.43048 16.4232 4.75592L11.1798 9.99999L16.4232 15.2441C16.7236 15.5445 16.7467 16.0172 16.4926 16.3441L16.4232 16.4226C16.1228 16.723 15.6501 16.7461 15.3232 16.4919L15.2447 16.4226L10.0007 11.1792L4.75657 16.4226C4.43114 16.748 3.9035 16.748 3.57806 16.4226C3.25263 16.0971 3.25263 15.5695 3.57806 15.2441L8.82148 9.99999L3.57806 4.75592C3.27766 4.45551 3.25455 3.98282 3.50874 3.65591L3.57806 3.57741L3.50874 3.65591Z" fill="#212529" fill-opacity="0.64"/>
</svg>
