<svg width="20" height="20" viewBox="0 0 20 20" fill="none" xmlns="http://www.w3.org/2000/svg">
<g clip-path="url(#clip0_14607_10424)">
<path d="M18.3333 10.0002C18.3333 5.3978 14.6024 1.66684 9.99999 1.66684C5.39762 1.66684 1.66666 5.3978 1.66666 10.0002C1.66666 13.9083 4.35716 17.1876 7.98686 18.0881V12.5467H6.26846V10.0002H7.98686V8.90287C7.98686 6.06647 9.27046 4.7518 12.0551 4.7518C12.5831 4.7518 13.494 4.8553 13.8667 4.95883V7.2673C13.67 7.2466 13.3284 7.23623 12.904 7.23623C11.5375 7.23623 11.0096 7.75383 11.0096 9.09957V10.0002H13.7315L13.2639 12.5467H11.0096V18.2725C15.1358 17.7741 18.3333 14.2608 18.3333 10.0002Z" fill="#0866FF"/>
<path d="M13.2638 12.5467L13.7314 10.0002H11.0095V9.09954C11.0095 7.7538 11.5374 7.23624 12.9038 7.23624C13.3283 7.23624 13.6699 7.24657 13.8666 7.26727V4.95884C13.4939 4.85531 12.5829 4.75177 12.055 4.75177C9.27037 4.75177 7.98674 6.06647 7.98674 8.90287V10.0002H6.26834V12.5467H7.98674V18.0881C8.63151 18.248 9.30567 18.3335 9.99987 18.3335C10.3417 18.3335 10.6785 18.3124 11.0095 18.2725V12.5467H13.2638Z" fill="white"/>
</g>
<defs>
<clipPath id="clip0_14607_10424">
<rect width="20" height="20" fill="white"/>
</clipPath>
</defs>
</svg>
