<svg width="33" height="32" viewBox="0 0 33 32" fill="none" xmlns="http://www.w3.org/2000/svg">
<path d="M18.2684 3.37753C17.1511 2.43487 15.5169 2.43487 14.3995 3.37753L5.39952 10.9702C4.72386 11.5403 4.33398 12.3793 4.33398 13.2633V25.6701C4.33398 26.9588 5.37865 28.0034 6.66732 28.0034H10.6673C11.956 28.0034 13.0007 26.9588 13.0007 25.6701V20.3333C13.0007 19.4276 13.7231 18.6906 14.6232 18.6672H18.0448C18.9449 18.6906 19.6673 19.4276 19.6673 20.3333V25.6701C19.6673 26.9588 20.712 28.0034 22.0007 28.0034H26.0006C27.2893 28.0034 28.334 26.9588 28.334 25.6701V13.2633C28.334 12.3793 27.9441 11.5403 27.2684 10.9702L18.2684 3.37753Z" fill="#717476"/>
</svg>
