<svg width="16" height="16" viewBox="0 0 16 16" fill="none" xmlns="http://www.w3.org/2000/svg">
<path d="M4.4978 2.66669H6.80727C7.08342 2.66669 7.30727 2.89054 7.30727 3.16669C7.30727 3.41982 7.11917 3.62901 6.87512 3.66212L6.80727 3.66669H4.4978C3.70389 3.66669 3.05404 4.28346 3.00126 5.06399L2.9978 5.16669V11.5C2.9978 12.2939 3.61458 12.9438 4.3951 12.9966L4.4978 13H10.8316C11.6255 13 12.2754 12.3832 12.3282 11.6027L12.3316 11.5V11.1682C12.3316 10.892 12.5555 10.6682 12.8316 10.6682C13.0848 10.6682 13.294 10.8563 13.3271 11.1003L13.3316 11.1682V11.5C13.3316 12.8362 12.2834 13.9275 10.9644 13.9966L10.8316 14H4.4978C3.16163 14 2.07029 12.9518 2.00127 11.6328L1.9978 11.5V5.16669C1.9978 3.83051 3.04604 2.73917 4.36503 2.67015L4.4978 2.66669H6.80727H4.4978ZM9.66713 4.36289V2.50002C9.66713 2.08404 10.1383 1.85998 10.4584 2.09322L10.5132 2.13918L14.5096 5.97251C14.6962 6.15141 14.7131 6.43876 14.5606 6.6374L14.5097 6.69414L10.5133 10.5287C10.2131 10.8167 9.72519 10.6318 9.6719 10.2393L9.66713 10.1679V8.30001L9.45329 8.29586C7.6816 8.29062 6.16723 9.01797 4.87671 10.4967C4.54631 10.8753 3.92653 10.5846 4.00635 10.0885C4.55768 6.66158 6.40573 4.72554 9.46584 4.38297L9.66713 4.36289V2.50002V4.36289Z" fill="white"/>
</svg>
