<svg width="33" height="32" viewBox="0 0 33 32" fill="none" xmlns="http://www.w3.org/2000/svg">
<path d="M4.00195 5.66663C4.00195 5.11434 4.44967 4.66663 5.00195 4.66663H5.74631C7.0136 4.66663 7.77238 5.51862 8.20628 6.31062C8.49551 6.83855 8.70472 7.45086 8.86838 8.00523C8.91271 8.00174 8.9576 7.99996 9.00302 7.99996H25.6661C26.773 7.99996 27.5724 9.05918 27.2688 10.1237L24.8319 18.6692C24.3827 20.2442 22.9436 21.3303 21.3058 21.3303H13.375C11.7237 21.3303 10.2761 20.2265 9.83906 18.6341L8.82507 14.9394L7.14694 9.27433L7.14422 9.26441C6.93661 8.50731 6.74178 7.80002 6.45226 7.27156C6.1711 6.75836 5.94697 6.66663 5.74631 6.66663H5.00195C4.44967 6.66663 4.00195 6.21891 4.00195 5.66663ZM10.7657 14.4536L11.7677 18.1047C11.9664 18.8286 12.6244 19.3303 13.375 19.3303H21.3058C22.0502 19.3303 22.7044 18.8366 22.9086 18.1207L25.2244 9.99996H9.44927L10.7474 14.3824C10.7544 14.4061 10.7605 14.4299 10.7657 14.4536ZM15.3353 25.3333C15.3353 26.8061 14.1414 28 12.6686 28C11.1959 28 10.002 26.8061 10.002 25.3333C10.002 23.8605 11.1959 22.6666 12.6686 22.6666C14.1414 22.6666 15.3353 23.8605 15.3353 25.3333ZM13.3353 25.3333C13.3353 24.9651 13.0368 24.6666 12.6686 24.6666C12.3004 24.6666 12.002 24.9651 12.002 25.3333C12.002 25.7015 12.3004 26 12.6686 26C13.0368 26 13.3353 25.7015 13.3353 25.3333ZM24.6686 25.3333C24.6686 26.8061 23.4747 28 22.002 28C20.5292 28 19.3353 26.8061 19.3353 25.3333C19.3353 23.8605 20.5292 22.6666 22.002 22.6666C23.4747 22.6666 24.6686 23.8605 24.6686 25.3333ZM22.6686 25.3333C22.6686 24.9651 22.3701 24.6666 22.002 24.6666C21.6338 24.6666 21.3353 24.9651 21.3353 25.3333C21.3353 25.7015 21.6338 26 22.002 26C22.3701 26 22.6686 25.7015 22.6686 25.3333Z" fill="#717476"/>
</svg>
