<svg width="19" height="19" viewBox="0 0 19 19" fill="none" xmlns="http://www.w3.org/2000/svg">
<g clip-path="url(#clip0_2025_2)">
<path d="M9.1853 1.37033C8.98664 1.37344 8.79733 1.45523 8.65892 1.59776C8.5205 1.7403 8.44429 1.93192 8.44701 2.13058V3.03293C5.5109 3.41918 3.19701 5.84208 3.19701 8.88058V11.1306C3.19701 12.3727 1.95336 13.5666 1.95336 13.5666C1.87293 13.6369 1.80846 13.7236 1.76425 13.8209C1.72004 13.9182 1.69711 14.0237 1.69701 14.1306V14.8806C1.69703 15.0795 1.77606 15.2702 1.91671 15.4109C2.05735 15.5515 2.24811 15.6306 2.44701 15.6306H6.94701C6.94701 16.8644 7.96322 17.8806 9.19701 17.8806C10.4312 17.8806 11.447 16.8639 11.447 15.6306H15.947C16.1459 15.6306 16.3367 15.5515 16.4773 15.4109C16.618 15.2702 16.697 15.0795 16.697 14.8806V14.1306C16.6969 14.0066 16.6661 13.8846 16.6073 13.7754C16.5485 13.6663 16.4636 13.5734 16.3601 13.5051C16.3601 13.5051 15.197 12.7683 15.197 11.1306V8.88058C15.197 5.8422 12.8841 3.4192 9.94701 3.03293V2.13058C9.94839 2.03024 9.92961 1.93064 9.8918 1.83769C9.85399 1.74473 9.79791 1.66031 9.72688 1.58942C9.65585 1.51853 9.57132 1.46261 9.4783 1.42498C9.38527 1.38735 9.28563 1.36876 9.1853 1.37033ZM4.71313 1.37473C4.56959 1.37368 4.42876 1.41384 4.30737 1.49045C2.21387 2.76741 0.686197 4.82245 0.211662 7.23557C0.173201 7.43079 0.213866 7.63329 0.324712 7.79853C0.435558 7.96377 0.607505 8.07821 0.802727 8.11667C0.997948 8.15513 1.20045 8.11447 1.36569 8.00362C1.53093 7.89277 1.64537 7.72083 1.68383 7.5256C2.0718 5.55272 3.32812 3.84426 5.08813 2.77072C5.22933 2.68738 5.33933 2.56006 5.4013 2.40826C5.46327 2.25646 5.47379 2.08853 5.43125 1.93018C5.38872 1.77183 5.29547 1.63178 5.16577 1.53147C5.03608 1.43115 4.87708 1.3761 4.71313 1.37473ZM13.6604 1.37619C13.4987 1.38261 13.3435 1.44114 13.2178 1.54304C13.0921 1.64494 13.0027 1.78474 12.963 1.9416C12.9233 2.09845 12.9354 2.26394 12.9974 2.41337C13.0595 2.56279 13.1682 2.68815 13.3074 2.77072C15.0674 3.84426 16.3237 5.55272 16.7117 7.5256C16.7501 7.72083 16.8646 7.89277 17.0298 8.00362C17.195 8.11447 17.3975 8.15513 17.5928 8.11667C17.788 8.07821 17.9599 7.96377 18.0708 7.79853C18.1816 7.63329 18.2223 7.43079 18.1838 7.23557C17.7093 4.82245 16.1816 2.76741 14.0881 1.49045C13.9603 1.41019 13.8112 1.37037 13.6604 1.37619ZM9.156 4.38937C9.18381 4.39092 9.21168 4.39092 9.23949 4.38937C11.7133 4.41348 13.697 6.40225 13.697 8.88058V11.1306C13.697 12.7026 14.3643 13.5803 14.9084 14.1306H3.44604C3.95843 13.5873 4.69701 12.6503 4.69701 11.1306V8.88058C4.69701 6.40187 6.68314 4.41269 9.156 4.38937ZM8.44701 15.6306H9.94701C9.94701 16.0532 9.62033 16.3806 9.19701 16.3806C8.77481 16.3806 8.44701 16.0528 8.44701 15.6306Z" fill="white"/>
</g>
<defs>
<clipPath id="clip0_2025_2">
<rect width="18" height="18" fill="white" transform="translate(0.199951 0.630585)"/>
</clipPath>
</defs>
</svg>
