<svg width="20" height="20" viewBox="0 0 20 20" fill="none" xmlns="http://www.w3.org/2000/svg">
<g clip-path="url(#clip0_14607_10430)">
<path d="M9.99999 18.3332C14.6024 18.3332 18.3333 14.6022 18.3333 9.99984C18.3333 5.39746 14.6024 1.6665 9.99999 1.6665C5.39762 1.6665 1.66666 5.39746 1.66666 9.99984C1.66666 14.6022 5.39762 18.3332 9.99999 18.3332Z" fill="url(#paint0_linear_14607_10430)"/>
<path fill-rule="evenodd" clip-rule="evenodd" d="M5.43882 9.9118C7.86816 8.85338 9.4881 8.1556 10.2986 7.81847C12.6129 6.8559 13.0938 6.68869 13.4072 6.68316C13.4761 6.68195 13.6303 6.69903 13.7301 6.78005C13.8144 6.84846 13.8376 6.94087 13.8487 7.00573C13.8598 7.07059 13.8736 7.21834 13.8627 7.33378C13.7372 8.65148 13.1946 11.8492 12.9185 13.325C12.8017 13.9495 12.5717 14.1589 12.349 14.1794C11.8651 14.2239 11.4976 13.8596 11.0289 13.5523C10.2955 13.0715 9.88112 12.7723 9.16918 12.3031C8.34642 11.7609 8.87978 11.4629 9.34867 10.9759C9.47138 10.8485 11.6036 8.90904 11.6449 8.73311C11.65 8.71111 11.6548 8.62909 11.6061 8.58578C11.5574 8.54247 11.4855 8.55728 11.4336 8.56906C11.36 8.58575 10.1883 9.36019 7.91851 10.8924C7.58593 11.1207 7.28469 11.232 7.01479 11.2262C6.71725 11.2198 6.14489 11.0579 5.71941 10.9196C5.19753 10.75 4.78276 10.6603 4.81887 10.3722C4.83769 10.2221 5.04433 10.0687 5.43882 9.9118Z" fill="white"/>
</g>
<defs>
<linearGradient id="paint0_linear_14607_10430" x1="9.99999" y1="1.6665" x2="9.99999" y2="18.2096" gradientUnits="userSpaceOnUse">
<stop stop-color="#2AABEE"/>
<stop offset="1" stop-color="#229ED9"/>
</linearGradient>
<clipPath id="clip0_14607_10430">
<rect width="20" height="20" fill="white"/>
</clipPath>
</defs>
</svg>
