<svg width="16" height="16" viewBox="0 0 16 16" fill="none" xmlns="http://www.w3.org/2000/svg">
<path d="M8.91688 13.4829C9.07309 13.6391 9.32635 13.6391 9.48256 13.4829L12.6826 10.2829C12.8388 10.1267 12.8388 9.87341 12.6826 9.71721L9.48256 6.51721C9.32635 6.361 9.07309 6.361 8.91688 6.51721C8.76067 6.67342 8.76067 6.92668 8.91688 7.08289L11.434 9.60005H6.39972C5.51606 9.60005 4.79972 8.8837 4.79972 8.00005V2.80005C4.79972 2.57914 4.62063 2.40005 4.39972 2.40005C4.17881 2.40005 3.99972 2.57914 3.99972 2.80005V8.00005C3.99972 9.32553 5.07424 10.4 6.39972 10.4H11.434L8.91688 12.9172C8.76067 13.0734 8.76067 13.3267 8.91688 13.4829Z" fill="#212529"/>
<path fill-rule="evenodd" clip-rule="evenodd" d="M3.89972 2.80005C3.89972 2.52391 4.12358 2.30005 4.39972 2.30005C4.67586 2.30005 4.89972 2.52391 4.89972 2.80005V8.00005C4.89972 8.82848 5.57129 9.50005 6.39972 9.50005H11.1926L8.84617 7.1536C8.6509 6.95834 8.6509 6.64176 8.84617 6.4465C9.04143 6.25123 9.35801 6.25123 9.55327 6.4465L12.7533 9.64649C12.9485 9.84176 12.9485 10.1583 12.7533 10.3536L9.55327 13.5536C9.35801 13.7489 9.04143 13.7489 8.84617 13.5536C8.6509 13.3583 8.6509 13.0418 8.84617 12.8465L11.1926 10.5H6.39972C5.01901 10.5 3.89972 9.38076 3.89972 8.00005V2.80005ZM4.39972 2.50005C4.23403 2.50005 4.09972 2.63436 4.09972 2.80005V8.00005C4.09972 9.2703 5.12946 10.3 6.39972 10.3H11.434C11.4745 10.3 11.5109 10.3244 11.5264 10.3618C11.5419 10.3991 11.5333 10.4422 11.5047 10.4708L8.98759 12.9879C8.87043 13.1051 8.87043 13.295 8.98759 13.4122C9.10474 13.5293 9.29469 13.5293 9.41185 13.4122L12.6119 10.2122C12.729 10.095 12.729 9.90507 12.6119 9.78792L9.41185 6.58792C9.29469 6.47076 9.10474 6.47076 8.98759 6.58792C8.87043 6.70507 8.87043 6.89502 8.98759 7.01218L11.5047 9.52934C11.5333 9.55794 11.5419 9.60095 11.5264 9.63832C11.5109 9.67568 11.4745 9.70005 11.434 9.70005H6.39972C5.46084 9.70005 4.69972 8.93893 4.69972 8.00005V2.80005C4.69972 2.63436 4.5654 2.50005 4.39972 2.50005Z" fill="#212529"/>
</svg>
