<svg width="20" height="20" viewBox="0 0 20 20" fill="none" xmlns="http://www.w3.org/2000/svg">
<g clip-path="url(#clip0_14607_10418)">
<path d="M1.66666 9.65262C1.66666 5.88817 1.66666 4.00539 2.8361 2.83595C4.00555 1.6665 5.88888 1.6665 9.65277 1.6665H10.3472C14.1117 1.6665 15.9944 1.6665 17.1639 2.83595C18.3333 4.00539 18.3333 5.88873 18.3333 9.65262V10.3471C18.3333 14.1115 18.3333 15.9943 17.1639 17.1637C15.9944 18.3332 14.1111 18.3332 10.3472 18.3332H9.65277C5.88832 18.3332 4.00555 18.3332 2.8361 17.1637C1.66666 15.9943 1.66666 14.1109 1.66666 10.3471V9.65262Z" fill="#2787F5"/>
<path fill-rule="evenodd" clip-rule="evenodd" d="M6.18056 6.875H4.96556C4.61833 6.875 4.54889 7.03833 4.54889 7.21889C4.54889 7.54056 4.96056 9.13722 6.46722 11.2483C7.47111 12.6906 8.88611 13.4722 10.1733 13.4722C10.9461 13.4722 11.0417 13.2983 11.0417 13V11.91C11.0417 11.5628 11.115 11.4933 11.3594 11.4933C11.54 11.4933 11.8483 11.5833 12.57 12.2783C13.3939 13.1028 13.5294 13.4722 13.9928 13.4722H15.2083C15.5556 13.4722 15.7294 13.2983 15.6289 12.9556C15.5194 12.6144 15.1261 12.1189 14.6039 11.5317C14.3206 11.1972 13.8961 10.8367 13.7672 10.6561C13.5867 10.4244 13.6383 10.3217 13.7672 10.1156C13.7672 10.1156 15.2478 8.03 15.4022 7.32167C15.48 7.06444 15.4022 6.875 15.0344 6.875H13.8194C13.5106 6.875 13.3678 7.03833 13.2906 7.21889C13.2906 7.21889 12.6728 8.725 11.7972 9.70333C11.5139 9.98667 11.385 10.0772 11.2306 10.0772C11.1533 10.0772 11.0417 9.98667 11.0417 9.72944V7.32167C11.0417 7.01278 10.9522 6.875 10.6944 6.875H8.78444C8.59167 6.875 8.47555 7.01833 8.47555 7.15444C8.47555 7.44722 8.91333 7.515 8.95833 8.33889V10.1283C8.95833 10.5211 8.88778 10.5922 8.73278 10.5922C8.32111 10.5922 7.31889 9.07889 6.72444 7.34778C6.60778 7.01111 6.49111 6.875 6.18056 6.875Z" fill="white"/>
</g>
<defs>
<clipPath id="clip0_14607_10418">
<rect width="20" height="20" fill="white"/>
</clipPath>
</defs>
</svg>
